<svg xmlns="http://www.w3.org/2000/svg" viewBox="0 0 120 120" width="100%" height="100%">
  <defs>
    <linearGradient id="cBlueGradSim" x1="0%" y1="0%" x2="100%" y2="100%">
      <stop offset="0%" stop-color="#0A2540"/>
      <stop offset="100%" stop-color="#144272"/>
    </linearGradient>
    <linearGradient id="cOrangeGradSim" x1="0%" y1="0%" x2="100%" y2="100%">
      <stop offset="0%" stop-color="#FF7A00"/>
      <stop offset="100%" stop-color="#F26419"/>
    </linearGradient>
    <linearGradient id="cTealGradSim" x1="0%" y1="0%" x2="100%" y2="100%">
      <stop offset="0%" stop-color="#00B4D8"/>
      <stop offset="100%" stop-color="#0077B6"/>
    </linearGradient>
  </defs>

  <g transform="translate(10, 8)">
    <!-- Central Tower (Main Building) -->
    <path d="M 50 12 L 69 3 L 69 75 L 50 82 Z" fill="url(#cBlueGradSim)" />
    <path d="M 50 12 L 31 3 L 31 75 L 50 82 Z" fill="#1B4965" />
    <line x1="40" y1="20" x2="40" y2="65" stroke="#ffffff" stroke-width="2" stroke-dasharray="3 3" opacity="0.65"/>
    <line x1="60" y1="20" x2="60" y2="65" stroke="#ffffff" stroke-width="2" stroke-dasharray="3 3" opacity="0.65"/>

    <!-- Left Structural Tower -->
    <path d="M 27 32 L 13 25 L 13 77 L 27 81 Z" fill="#0A2540" />
    <path d="M 27 32 L 29 33 L 29 81 L 27 81 Z" fill="#144272" opacity="0.8"/>

    <!-- Right Accent Tower (Orange / Growth & Energy) -->
    <path d="M 73 29 L 87 22 L 87 75 L 73 81 Z" fill="url(#cOrangeGradSim)" />
    <line x1="80" y1="32" x2="80" y2="67" stroke="#ffffff" stroke-width="2" stroke-dasharray="3 3" opacity="0.8"/>

    <!-- Ocean / Sea Waves -->
    <path d="M 5 86 C 25 73, 48 95, 75 82 C 90 73, 101 80, 106 84 C 97 93, 75 101, 53 93 C 31 85, 15 95, 5 86 Z" fill="url(#cBlueGradSim)" />
    <path d="M 13 97 C 33 84, 57 104, 84 90 C 95 85, 101 88, 103 91 C 95 100, 75 109, 51 101 C 31 95, 20 103, 13 97 Z" fill="url(#cTealGradSim)" />
    <path d="M 70 78 C 84 69, 97 75, 104 81 C 100 86, 88 82, 77 87 Z" fill="url(#cOrangeGradSim)" />
  </g>
</svg>
